<?xml version="1.0" standalone="no"?>
<!DOCTYPE svg PUBLIC "-//W3C//DTD SVG 20010904//EN"
 "http://www.w3.org/TR/2001/REC-SVG-20010904/DTD/svg10.dtd">
<svg version="1.0" xmlns="http://www.w3.org/2000/svg"
 width="800.000000pt" height="800.000000pt" viewBox="0 0 800.000000 800.000000"
 preserveAspectRatio="xMidYMid meet">
<metadata>
Created by potrace 1.14, written by Peter Selinger 2001-2017
</metadata>
<g transform="translate(0.000000,800.000000) scale(0.100000,-0.100000)"
fill="#000000" stroke="none">
<path d="M3885 7744 c-71 -30 -152 -65 -180 -78 -27 -13 -75 -34 -105 -47 -85
-36 -614 -302 -715 -359 -49 -28 -130 -75 -180 -103 -642 -363 -1338 -884
-1880 -1407 -238 -229 -529 -536 -677 -714 l-49 -58 6 -87 c19 -278 71 -679
129 -1001 47 -260 143 -679 201 -880 14 -47 35 -119 47 -160 175 -606 495
-1374 793 -1905 132 -235 234 -408 306 -517 26 -40 10 -34 274 -93 371 -82
679 -132 1175 -189 577 -67 1480 -67 2050 -1 221 26 504 64 592 79 216 38 374
69 498 96 261 58 291 67 315 91 33 34 252 408 365 624 451 858 733 1622 941
2545 78 350 167 964 184 1276 l7 121 -34 39 c-155 181 -300 336 -518 555 -433
434 -748 703 -1267 1084 -94 69 -443 302 -539 359 -44 26 -124 75 -179 108
-95 57 -135 80 -300 171 -156 85 -661 330 -830 401 -99 42 -195 83 -213 91
-51 23 -78 18 -217 -41z m289 -95 c67 -28 149 -64 184 -80 34 -16 64 -29 66
-29 7 0 228 -106 377 -180 186 -93 331 -170 474 -253 66 -38 134 -78 150 -87
167 -97 476 -299 685 -448 559 -400 1169 -950 1649 -1486 l124 -139 -7 -111
c-22 -365 -125 -1011 -231 -1452 -92 -377 -235 -840 -359 -1157 -14 -37 -38
-97 -52 -135 -29 -73 -164 -387 -214 -498 -40 -87 -232 -471 -264 -527 -13
-23 -42 -76 -64 -118 -95 -179 -276 -479 -289 -479 -5 0 -80 -16 -168 -35
-227 -50 -352 -76 -415 -85 -30 -5 -121 -20 -201 -34 -791 -136 -1832 -162
-2629 -66 -330 40 -431 53 -536 71 -65 11 -146 25 -179 30 -114 19 -539 106
-580 119 -22 7 -43 31 -80 87 -27 43 -55 87 -60 98 -6 11 -41 70 -76 130 -119
200 -297 539 -387 735 -17 36 -45 97 -62 135 -52 112 -130 294 -156 365 -13
36 -29 74 -34 85 -39 81 -165 447 -245 715 -87 287 -88 292 -130 465 -19 83
-40 166 -45 186 -16 57 -106 523 -123 634 -42 269 -84 603 -92 741 l-7 102
109 123 c575 654 1228 1220 1960 1702 133 87 441 277 450 277 3 0 17 8 31 19
73 51 589 321 802 419 283 130 470 211 489 212 8 0 69 -23 135 -51z"/>
<path d="M3950 7554 c-41 -18 -97 -43 -125 -55 -792 -354 -1451 -742 -2080
-1225 -277 -214 -385 -304 -660 -555 -230 -210 -656 -651 -773 -801 -11 -14
-10 -49 8 -210 33 -305 88 -684 125 -858 8 -36 23 -114 35 -175 74 -376 242
-968 387 -1355 153 -411 371 -892 571 -1255 118 -216 277 -477 297 -491 25
-17 491 -111 750 -153 312 -50 687 -90 1035 -113 239 -15 854 -15 1085 0 452
30 985 97 1318 166 277 58 403 87 421 99 57 38 456 774 617 1138 98 222 209
493 259 629 299 826 458 1521 546 2392 l16 167 -52 63 c-167 200 -569 606
-850 859 -537 481 -1121 897 -1765 1259 -263 147 -1036 513 -1078 509 -7 -1
-46 -16 -87 -35z m262 -110 c198 -86 216 -94 387 -176 196 -94 561 -289 671
-358 8 -5 38 -22 65 -38 191 -110 604 -386 822 -549 508 -381 987 -816 1412
-1283 62 -69 120 -134 127 -146 12 -18 12 -42 -1 -170 -60 -576 -153 -1087
-285 -1559 -23 -82 -45 -163 -49 -180 -12 -46 -69 -225 -122 -380 -143 -422
-299 -792 -510 -1215 -111 -221 -171 -332 -356 -655 -63 -111 -48 -103 -267
-150 -192 -42 -602 -115 -761 -135 -462 -58 -847 -83 -1290 -83 -493 0 -1046
41 -1460 108 -500 81 -813 146 -833 172 -7 10 -36 56 -64 103 -48 81 -73 124
-165 285 -73 126 -239 457 -318 630 -42 94 -88 195 -102 225 -25 55 -129 317
-185 465 -134 357 -301 945 -382 1346 -66 324 -126 712 -156 999 -6 58 -13
122 -15 142 -5 35 0 44 87 145 144 168 684 703 878 869 709 608 1376 1040
2266 1467 183 87 409 185 431 186 12 1 91 -29 175 -65z"/>
<path d="M3883 6443 c-20 -8 -18 -326 2 -343 12 -10 18 -10 31 1 12 10 15 29
13 88 -2 42 0 77 4 79 19 6 27 -4 65 -82 42 -84 58 -101 87 -90 13 5 15 32 13
178 l-3 171 -25 0 c-25 0 -25 -1 -28 -92 -1 -51 -7 -93 -12 -93 -5 0 -27 37
-50 83 -38 74 -63 108 -79 106 -3 0 -12 -3 -18 -6z"/>
<path d="M4288 6423 c-8 -10 -24 -38 -36 -63 -11 -25 -41 -89 -66 -142 -39
-86 -43 -100 -30 -113 20 -19 39 -10 63 31 22 36 36 40 90 21 25 -9 36 -21 45
-47 11 -37 51 -55 61 -28 8 21 -62 340 -77 349 -20 13 -33 11 -50 -8z m37
-144 c8 -45 -2 -63 -31 -57 -25 4 -30 43 -10 74 23 34 33 30 41 -17z"/>
<path d="M3715 6420 c-4 -6 1 -61 10 -122 9 -61 14 -122 10 -135 -6 -27 -39
-46 -64 -38 -27 8 -39 40 -55 158 -9 59 -18 112 -21 118 -8 12 -42 12 -49 0
-9 -14 23 -238 38 -276 15 -35 59 -65 96 -65 39 0 89 28 105 60 15 29 15 46 5
159 -7 69 -17 132 -23 139 -12 15 -43 16 -52 2z"/>
<path d="M4535 6390 c-3 -5 -15 -47 -26 -92 -11 -46 -27 -109 -35 -141 -18
-74 -18 -96 1 -103 24 -10 42 13 50 64 9 59 32 115 44 108 5 -3 12 -23 15 -43
12 -72 30 -138 40 -151 5 -7 21 -12 34 -10 22 3 27 11 37 58 7 30 20 89 30
130 10 41 20 92 22 113 4 32 2 37 -15 37 -29 0 -40 -19 -51 -90 -18 -109 -41
-107 -65 5 -20 99 -32 125 -55 125 -11 0 -23 -4 -26 -10z"/>
<path d="M3320 6358 c-79 -22 -118 -100 -98 -195 19 -89 72 -149 139 -159 41
-6 113 28 142 67 17 24 18 31 7 65 -30 94 -37 98 -106 69 -28 -11 -35 -19 -32
-37 2 -18 10 -23 36 -24 18 -1 35 -4 38 -7 13 -13 -10 -49 -42 -64 -32 -16
-36 -16 -62 3 -62 46 -84 154 -41 200 25 27 55 30 83 9 25 -19 50 -19 66 0 10
13 9 19 -6 37 -16 17 -76 50 -86 47 -2 0 -19 -5 -38 -11z"/>
<path d="M4963 6268 c-5 -7 -28 -62 -52 -123 -23 -60 -49 -124 -58 -142 -18
-36 -11 -53 21 -53 23 0 41 35 71 138 13 43 30 16 38 -59 13 -116 19 -134 48
-137 29 -3 28 -4 103 188 37 96 42 117 31 129 -24 25 -42 4 -75 -84 -19 -50
-37 -82 -42 -77 -5 5 -12 52 -17 105 -8 93 -20 127 -46 127 -7 0 -17 -6 -22
-12z"/>
<path d="M3067 6263 c-12 -12 -7 -40 17 -94 54 -123 44 -128 -60 -29 -113 107
-147 92 -99 -44 42 -123 93 -228 107 -224 30 10 30 35 -1 105 -51 116 -41 121
56 28 37 -36 76 -67 86 -71 19 -6 47 11 47 29 0 13 -88 243 -106 280 -14 26
-33 34 -47 20z"/>
<path d="M2675 6086 c-17 -12 -18 -18 -7 -67 6 -30 19 -90 27 -134 30 -147 34
-157 58 -153 19 3 22 9 22 50 1 26 3 49 5 51 3 2 22 14 43 26 41 25 35 26 103
-23 14 -11 47 11 42 28 -5 18 -245 236 -260 236 -8 0 -23 -6 -33 -14z m112
-120 c23 -20 26 -28 17 -43 -20 -32 -42 -27 -59 13 -8 20 -15 40 -15 45 0 17
29 9 57 -15z"/>
<path d="M5217 5987 c-66 -63 -118 -120 -117 -130 0 -27 28 -32 53 -10 37 34
46 35 85 12 20 -12 39 -24 42 -27 3 -2 5 -25 5 -50 0 -43 2 -47 25 -47 24 0
26 5 42 90 10 50 22 110 27 135 22 101 22 107 6 124 -9 9 -24 16 -33 16 -9 0
-70 -51 -135 -113z m93 -61 c-11 -31 -36 -32 -54 -3 -9 16 -5 23 24 48 l35 30
3 -24 c2 -13 -2 -36 -8 -51z"/>
<path d="M5514 5926 c-46 -46 -45 -83 2 -152 25 -36 34 -58 29 -73 -9 -28 -41
-36 -70 -17 -20 13 -25 25 -25 56 0 28 -5 42 -19 49 -39 21 -64 -65 -32 -113
48 -72 123 -86 176 -33 58 58 57 75 -9 182 -28 45 -28 48 -12 61 28 20 63 -1
73 -44 10 -42 39 -65 53 -42 28 44 -2 115 -60 145 -44 23 -69 18 -106 -19z"/>
<path d="M2460 5939 c-38 -15 -130 -81 -130 -93 0 -11 20 -40 141 -209 23 -33
48 -61 55 -64 16 -6 128 78 150 112 10 15 13 33 9 47 -12 37 -52 85 -78 92
-18 4 -26 15 -31 39 -11 58 -67 95 -116 76z m58 -87 c4 -28 -33 -72 -60 -72
-9 0 -25 12 -35 26 -17 26 -17 27 12 51 38 30 79 28 83 -5z m86 -98 c26 -25
18 -50 -25 -79 l-40 -29 -24 30 c-13 16 -24 32 -25 36 0 12 62 58 80 58 10 0
26 -7 34 -16z"/>
<path d="M5743 5742 c-132 -153 -164 -194 -161 -210 2 -10 12 -17 25 -17 15 0
51 35 122 119 56 65 101 124 101 132 0 7 -8 18 -19 23 -16 9 -26 1 -68 -47z"/>
<path d="M2207 5742 c-22 -24 -21 -47 1 -80 24 -38 39 -63 57 -94 14 -26 14
-28 -1 -28 -9 0 -33 13 -53 28 -20 16 -52 38 -72 50 l-36 22 -27 -21 c-14 -11
-26 -26 -26 -34 0 -22 211 -245 232 -245 40 0 31 31 -26 89 -86 86 -73 97 30
25 36 -25 73 -44 82 -42 27 5 25 43 -5 90 -76 119 -72 144 10 54 46 -51 68
-68 80 -63 9 3 17 14 17 22 0 23 -210 245 -230 245 -9 0 -24 -8 -33 -18z"/>
<path d="M3925 5691 c-136 -37 -235 -127 -271 -248 -8 -26 -19 -88 -24 -138
-6 -49 -13 -105 -16 -122 -6 -32 -5 -33 30 -33 19 0 65 -11 101 -25 77 -29
217 -55 295 -55 76 0 207 24 295 55 40 14 88 25 105 25 l33 0 -7 43 c-4 23
-11 76 -16 117 -19 165 -57 246 -144 309 -84 59 -131 74 -246 77 -58 2 -118 0
-135 -5z m132 -233 c6 -7 15 -26 20 -43 8 -25 15 -30 44 -31 55 -2 59 -3 59
-18 0 -8 -16 -23 -35 -35 -39 -23 -43 -40 -18 -82 13 -22 14 -32 6 -40 -12
-12 -18 -9 -79 36 -9 7 -19 7 -28 0 -61 -45 -67 -48 -79 -36 -8 8 -7 18 6 40
25 42 21 58 -18 83 -19 13 -35 28 -35 34 0 17 27 25 56 18 30 -8 54 11 54 40
0 21 17 46 31 46 4 0 11 -6 16 -12z"/>
<path d="M5868 5647 c-91 -29 -177 -141 -163 -214 8 -42 59 -99 99 -109 46
-11 113 15 160 62 75 75 93 140 56 201 -35 59 -90 80 -152 60z m95 -88 c17
-23 18 -32 8 -61 -13 -39 -50 -78 -98 -102 -52 -26 -103 4 -103 62 0 30 9 44
51 84 44 43 55 49 86 46 25 -2 42 -11 56 -29z"/>
<path d="M1907 5431 c-32 -38 -57 -77 -57 -85 0 -8 15 -25 33 -38 17 -12 72
-56 120 -96 53 -44 95 -72 106 -70 24 4 133 137 129 157 -7 35 -43 23 -87 -29
-23 -27 -48 -50 -54 -50 -17 1 -57 36 -57 51 0 6 16 32 36 56 38 47 41 76 7
81 -15 2 -30 -9 -54 -42 -36 -51 -70 -61 -89 -25 -10 18 -6 28 30 70 44 52 49
82 14 87 -16 2 -35 -15 -77 -67z"/>
<path d="M6010 5336 c-84 -62 -125 -99 -125 -112 0 -35 39 -28 89 15 52 45 85
65 93 57 3 -2 -16 -47 -43 -99 -47 -92 -51 -121 -21 -133 14 -5 64 27 201 126
79 57 89 69 74 87 -18 22 -36 15 -102 -37 -58 -45 -86 -60 -86 -44 0 3 23 48
50 100 41 77 48 99 40 114 -6 11 -18 20 -28 19 -9 0 -73 -42 -142 -93z"/>
<path d="M1754 5208 c-43 -46 -74 -93 -74 -112 0 -9 19 -28 43 -42 23 -15 81
-53 129 -85 92 -62 121 -71 133 -42 6 18 -31 57 -67 68 -28 10 -29 35 -3 79
31 54 31 67 -1 106 -56 66 -115 77 -160 28z m98 -55 c23 -21 23 -45 -1 -74
-19 -23 -20 -23 -48 -7 -45 27 -51 43 -23 73 27 29 46 31 72 8z"/>
<path d="M3295 5174 c-27 -19 -88 -69 -135 -112 -114 -104 -159 -138 -215
-163 -44 -20 -48 -20 -66 -3 -23 21 -24 52 -4 118 8 27 15 53 15 58 0 33 -112
-35 -188 -115 -93 -99 -140 -220 -151 -394 -6 -106 -10 -122 -36 -161 -30 -45
-66 -62 -90 -42 -24 20 -37 77 -30 130 7 47 6 50 -16 50 -15 0 -42 -20 -75
-53 -98 -102 -113 -220 -55 -452 41 -163 50 -269 27 -312 -20 -40 -59 -50
-115 -27 -68 27 -72 10 -19 -94 37 -71 48 -105 57 -177 19 -146 31 -192 62
-251 40 -74 29 -86 -44 -50 -69 33 -77 33 -77 -5 0 -78 81 -185 178 -232 46
-23 53 -40 21 -57 -11 -7 -38 -28 -60 -47 -64 -58 -46 -96 42 -86 70 8 144
-19 255 -92 54 -36 105 -65 112 -65 8 0 25 9 39 20 30 23 61 26 88 6 35 -23
148 -81 198 -100 32 -12 52 -27 62 -47 9 -16 21 -29 28 -29 11 0 1843 0 1878
0 9 0 21 11 27 25 8 18 36 37 89 62 42 20 103 51 134 69 67 40 80 41 126 13
l35 -22 41 22 c23 12 70 41 104 65 78 54 158 80 221 73 91 -10 107 28 39 89
-24 22 -52 44 -62 50 -24 13 -14 29 36 55 93 47 169 149 169 228 0 38 -1 38
-87 0 -29 -13 -55 -20 -58 -17 -4 3 5 28 18 55 35 69 54 138 62 218 8 93 30
167 71 243 19 34 34 67 34 71 0 18 -30 19 -69 4 -54 -21 -89 -11 -107 32 -25
62 -18 135 34 330 35 133 37 267 5 337 -29 63 -110 150 -137 146 -18 -3 -20
-10 -21 -74 0 -107 -42 -145 -97 -86 -45 48 -55 81 -61 202 -7 160 -54 278
-150 378 -47 49 -151 122 -173 122 -18 0 -18 -7 1 -60 29 -83 10 -149 -39
-134 -44 14 -134 77 -221 155 -155 141 -231 190 -249 160 -3 -5 19 -60 48
-122 64 -134 93 -226 106 -328 18 -141 89 -251 249 -386 120 -101 165 -204 96
-221 -36 -9 -71 2 -138 43 -42 26 -61 33 -69 25 -8 -8 -2 -21 19 -49 17 -21
45 -66 62 -100 38 -77 42 -166 11 -256 -34 -96 -27 -126 55 -262 38 -62 26
-195 -19 -203 -17 -4 -63 39 -102 93 -28 38 -38 29 -60 -55 -22 -87 -83 -203
-143 -270 -64 -72 -79 -61 -49 35 18 59 21 96 22 240 0 180 -7 215 -45 215
-15 0 -26 -13 -40 -47 -43 -104 -96 -197 -147 -259 -54 -66 -131 -124 -164
-124 -23 0 -56 33 -64 65 -12 48 7 79 116 190 119 120 131 135 178 212 49 81
65 160 58 278 -21 352 -20 384 8 469 16 48 23 83 18 88 -14 14 -119 -8 -180
-38 -29 -14 -56 -23 -60 -20 -3 4 -16 42 -29 86 -12 44 -31 99 -42 122 -27 62
-51 138 -51 165 0 67 -51 84 -93 31 -40 -53 -68 -79 -78 -76 -6 2 -20 28 -33
58 -28 69 -84 152 -99 147 -15 -5 -86 -120 -101 -166 -7 -19 -17 -36 -23 -38
-6 -2 -30 19 -54 47 -24 29 -51 56 -61 61 -25 14 -58 -22 -58 -63 0 -18 -12
-64 -26 -103 -54 -148 -84 -237 -84 -250 0 -26 -20 -26 -73 -1 -28 14 -78 31
-110 37 -79 16 -87 6 -56 -63 22 -49 24 -65 23 -213 0 -88 -2 -221 -4 -295 -4
-150 2 -176 61 -278 19 -31 91 -116 162 -188 121 -126 127 -134 127 -173 0
-47 -34 -91 -70 -91 -73 0 -221 175 -284 335 -33 82 -42 95 -67 95 -35 0 -43
-37 -43 -205 -1 -139 2 -171 23 -243 33 -117 15 -124 -64 -25 -54 67 -106 172
-129 257 -19 75 -32 89 -54 57 -45 -62 -89 -104 -106 -98 -23 9 -46 67 -46
117 0 45 10 69 64 149 43 63 47 114 16 201 -41 117 -22 216 64 335 20 27 36
56 36 62 0 19 -35 16 -51 -4 -19 -22 -108 -63 -140 -63 -14 0 -34 9 -45 21
-18 20 -18 22 15 84 19 37 48 75 69 91 171 129 270 277 287 429 4 33 13 84 22
113 16 58 95 243 118 279 40 61 -4 70 -80 17z m-225 -359 c0 -8 -26 -42 -57
-75 -95 -103 -207 -139 -259 -83 -48 52 -14 143 36 98 44 -40 122 -21 217 51
44 34 63 36 63 9z m1014 -40 c14 -36 26 -75 26 -87 0 -25 -37 -68 -57 -68 -24
0 -83 51 -83 71 0 10 12 48 27 84 35 86 52 86 87 0z m1011 15 c29 -26 75 -47
119 -55 30 -6 43 -3 66 14 41 29 57 26 70 -14 13 -39 4 -64 -32 -89 -57 -40
-166 1 -253 96 -53 56 -63 77 -48 91 7 7 44 -13 78 -43z m-1218 -105 c32 -36
73 -74 91 -85 40 -24 40 -41 3 -88 -33 -41 -92 -156 -111 -217 -7 -22 -16 -44
-21 -49 -4 -5 -39 19 -80 54 l-71 64 4 55 c3 33 22 99 46 160 23 57 44 119 48
137 3 19 12 34 19 34 8 0 40 -29 72 -65z m421 23 c6 -24 27 -86 48 -138 21
-53 39 -119 41 -150 l5 -55 -84 -77 c-91 -82 -179 -191 -226 -278 -16 -30 -35
-56 -43 -58 -8 -1 -24 18 -38 48 -13 28 -43 76 -67 108 -24 31 -43 66 -43 77
-1 30 34 128 70 198 42 83 85 141 156 207 32 31 77 79 101 108 24 29 49 52 57
52 8 0 18 -18 23 -42z m-724 -348 c200 -117 357 -301 436 -513 32 -86 59 -199
66 -278 4 -41 11 -84 15 -96 9 -24 48 -32 50 -10 7 61 -20 234 -52 334 l-20
61 37 74 c57 113 110 186 204 278 91 89 243 190 288 190 23 0 23 -2 15 -42 -8
-45 -9 -178 -2 -438 4 -145 3 -158 -19 -205 -38 -82 -70 -124 -193 -250 -65
-66 -123 -133 -128 -148 -20 -51 -13 -101 18 -145 37 -51 87 -69 141 -53 69
21 200 158 251 264 14 28 30 47 39 47 14 0 16 -9 13 -57 -11 -166 -49 -311
-103 -396 -24 -37 -37 -48 -72 -57 -24 -6 -70 -19 -103 -29 -153 -48 -212 -56
-420 -55 -213 1 -208 0 -460 69 -68 19 -95 31 -112 52 -53 65 -108 260 -114
408 -2 49 0 61 13 63 11 2 25 -13 42 -47 59 -118 178 -242 249 -262 87 -23
167 44 167 141 0 59 -16 83 -125 190 -158 155 -219 254 -230 373 -4 34 0 137
9 228 14 157 11 243 -9 322 -6 24 -4 27 17 27 13 0 54 -18 92 -40z m-904 -30
c0 -42 -93 -139 -163 -171 -61 -27 -122 -25 -152 6 -29 28 -34 85 -10 105 13
11 21 9 45 -8 52 -39 129 -22 214 47 39 31 66 40 66 21z m2796 -11 c33 -37
116 -79 156 -79 21 0 52 9 70 20 40 24 58 12 58 -40 0 -90 -112 -108 -221 -36
-42 28 -119 120 -119 142 0 21 34 17 56 -7z m-68 -237 c2 -52 -1 -69 -23 -107
-29 -49 -78 -95 -102 -95 -21 0 -73 55 -73 78 0 31 26 47 55 34 14 -6 31 -9
39 -6 21 8 54 67 62 111 8 47 13 55 27 50 7 -2 13 -30 15 -65z m-2675 22 c30
-102 57 -132 101 -113 31 14 56 -2 56 -35 0 -26 -48 -76 -73 -76 -25 0 -80 53
-105 103 -21 43 -31 135 -15 151 12 12 27 0 36 -30z m-286 -271 c11 -16 30
-50 43 -78 28 -64 32 -193 7 -242 -19 -36 -53 -63 -80 -63 -30 0 -74 31 -93
65 -24 46 -14 65 35 65 30 0 44 6 55 22 20 28 20 90 1 154 -18 61 -19 104 -2
104 7 0 22 -12 34 -27z m3253 -9 c0 -19 -5 -44 -10 -54 -6 -11 -13 -46 -16
-78 -9 -79 10 -110 69 -114 37 -3 42 -6 45 -29 2 -19 -6 -36 -28 -58 -59 -58
-114 -52 -150 18 -28 56 -28 171 1 236 51 115 89 149 89 79z m-291 -300 c7
-21 16 -73 18 -115 5 -72 3 -81 -30 -151 -27 -56 -44 -79 -70 -92 -31 -17 -35
-17 -65 -2 -44 23 -64 57 -60 103 l3 38 43 -3 c23 -1 51 2 62 8 26 14 50 99
50 180 0 37 3 70 7 74 13 13 28 -1 42 -40z m-2669 -11 c0 -78 21 -174 42 -195
16 -16 28 -19 64 -13 40 6 45 4 55 -18 23 -51 -37 -129 -98 -129 -59 0 -133
131 -133 234 0 77 28 168 51 168 16 0 19 -8 19 -47z m-290 -504 c160 -31 294
-80 306 -114 4 -9 -1 -33 -10 -53 -9 -20 -22 -77 -30 -125 -7 -49 -18 -93 -23
-98 -7 -7 -32 5 -74 34 -84 58 -141 87 -192 95 -32 6 -42 12 -42 26 0 14 13
24 49 36 83 27 89 69 14 88 -23 6 -70 27 -103 47 -91 54 -138 116 -77 100 15
-3 97 -20 182 -36z m3410 28 c0 -32 -113 -108 -204 -138 -42 -13 -51 -20 -51
-40 0 -19 9 -27 50 -42 27 -10 55 -23 62 -29 20 -16 -1 -34 -48 -42 -51 -8
-105 -36 -187 -94 -37 -26 -67 -41 -72 -36 -5 5 -16 52 -25 104 -9 52 -23 108
-31 124 -21 42 -18 49 28 78 57 38 142 64 287 88 69 12 132 25 140 30 23 14
51 12 51 -3z m-2794 -233 c158 -69 240 -94 315 -94 52 0 61 -7 79 -65 7 -22
24 -57 37 -78 14 -22 22 -45 19 -53 -16 -42 -174 -69 -287 -49 -101 19 -171
44 -308 114 -64 33 -124 62 -133 65 -22 7 -24 50 -5 123 34 129 66 133 283 37z
m2233 12 c17 -34 24 -66 25 -108 l1 -60 -50 -16 c-27 -9 -53 -21 -57 -28 -11
-16 -160 -88 -238 -114 -90 -31 -246 -38 -322 -16 -78 22 -85 33 -54 93 14 26
34 69 45 94 l19 46 73 5 c83 6 188 40 344 112 80 37 109 46 145 44 43 -3 46
-5 69 -52z m-1644 12 c50 -15 123 -32 163 -39 40 -7 75 -16 78 -20 3 -5 17 -6
32 -3 39 7 57 -8 43 -35 -14 -24 -39 -28 -47 -6 -4 8 -10 15 -15 15 -12 0 -11
-37 1 -45 6 -3 10 -23 10 -44 0 -69 38 -75 54 -8 8 33 36 37 36 4 0 -13 6 -31
13 -42 21 -27 30 -7 54 120 7 38 18 45 71 45 l43 0 -7 -37 c-4 -21 -11 -41
-16 -44 -4 -3 -13 -21 -18 -39 -12 -43 2 -61 29 -36 18 16 22 16 50 2 16 -9
32 -16 36 -16 9 0 5 28 -9 57 -29 59 -46 105 -41 112 2 5 48 16 102 26 53 10
128 28 167 41 134 46 159 27 126 -95 -11 -38 -31 -95 -45 -127 -23 -53 -27
-56 -52 -50 -16 4 -46 10 -68 14 l-40 7 -3 58 c-2 41 2 66 12 83 22 33 21 34
-29 34 -50 0 -51 -1 -31 -33 18 -28 27 -135 12 -145 -57 -37 -368 -54 -515
-28 -52 9 -100 20 -105 25 -24 18 -59 18 -108 0 -29 -10 -58 -19 -64 -19 -38
0 -115 265 -87 294 11 11 66 2 168 -26z m389 -64 c16 -6 13 -48 -5 -68 -10
-11 -32 42 -25 61 6 15 8 15 30 7z"/>
<path d="M2891 2785 c1 -18 -6 -44 -19 -65 -25 -39 -25 -40 -14 -57 6 -9 15
-6 35 13 15 14 27 29 27 34 0 6 5 10 10 10 16 0 12 -37 -5 -44 -17 -6 -19 -15
-5 -36 7 -12 13 -11 34 9 14 13 26 33 28 45 2 11 12 22 23 24 26 5 46 22 39
33 -8 14 -40 10 -54 -6 -19 -23 -32 -18 -28 13 2 22 -1 26 -15 24 -11 -2 -28
5 -39 15 -20 18 -20 17 -17 -12z"/>
<path d="M3052 2717 c-12 -13 -22 -33 -22 -45 0 -15 -6 -22 -20 -22 -28 0 -25
-23 8 -46 45 -33 60 -35 83 -11 43 45 53 119 20 137 -30 15 -45 12 -69 -13z
m64 -30 c3 -8 0 -26 -5 -40 -8 -20 -18 -27 -36 -27 -26 0 -27 10 -9 68 5 16
43 16 50 -1z"/>
<path d="M3166 2692 c-2 -4 -1 -14 4 -22 4 -7 6 -28 3 -45 -7 -46 11 -51 36
-9 25 41 26 54 7 54 -8 0 -16 7 -20 15 -6 16 -22 20 -30 7z"/>
<path d="M3270 2641 c0 -11 -6 -26 -13 -33 -7 -7 -22 -26 -32 -42 l-20 -30 23
6 c15 4 29 0 41 -13 16 -18 19 -18 31 -4 9 11 10 22 3 38 -7 15 -6 29 4 47 19
37 16 50 -12 50 -18 0 -25 -5 -25 -19z"/>
<path d="M5108 2754 c-4 -3 -2 -20 3 -37 5 -18 6 -47 3 -66 -6 -31 -5 -33 12
-27 10 4 31 10 47 13 31 6 36 33 11 54 -8 7 -22 25 -30 41 -14 26 -33 36 -46
22z"/>
<path d="M4980 2709 c-14 -25 11 -69 39 -69 29 0 33 -13 10 -31 -12 -9 -19
-21 -15 -28 10 -15 41 -14 55 3 15 18 -12 82 -39 91 -24 8 -26 21 -5 29 24 9
17 26 -10 26 -14 0 -29 -8 -35 -21z"/>
<path d="M4874 2665 c-4 -8 -1 -21 5 -29 7 -8 9 -31 5 -60 -6 -37 -4 -46 8
-46 9 0 18 9 21 21 5 17 9 19 26 10 27 -15 31 -14 31 7 0 10 -11 29 -24 41
-13 13 -27 34 -30 47 -7 27 -33 32 -42 9z"/>
<path d="M4750 2623 c0 -17 73 -112 82 -107 6 4 6 10 -1 17 -6 6 -11 26 -11
44 0 22 -6 36 -19 43 -23 12 -51 13 -51 3z"/>
<path d="M3678 2743 c-3 -39 4 -79 18 -111 13 -28 20 -33 37 -27 12 4 35 7 50
7 l28 -1 -3 72 c-3 81 -22 97 -48 40 -18 -39 -33 -37 -40 3 -6 33 -39 47 -42
17z"/>
<path d="M6235 5070 c-38 -9 -96 -23 -128 -30 -66 -15 -86 -32 -67 -55 10 -12
24 -14 55 -9 42 6 42 5 69 -40 l27 -47 -26 -31 c-30 -35 -29 -62 1 -66 14 -2
29 7 44 25 12 15 62 72 112 126 84 91 90 100 80 123 -10 20 -18 24 -54 23 -24
0 -74 -9 -113 -19z m65 -57 c-1 -21 -49 -65 -66 -61 -29 5 -30 46 -2 57 28 12
68 14 68 4z"/>
<path d="M6328 4819 c-94 -46 -138 -73 -138 -85 0 -22 56 -138 75 -154 18 -15
45 -6 45 15 0 9 -9 33 -20 55 -34 66 -31 69 101 132 106 51 120 60 117 80 -2
15 -10 23 -23 24 -11 1 -82 -29 -157 -67z"/>
<path d="M1585 4860 c-28 -11 -60 -50 -72 -86 -14 -41 6 -88 46 -108 49 -26
74 -20 135 34 31 28 61 50 66 50 17 0 40 -32 40 -55 0 -29 -34 -55 -71 -55
-31 0 -41 -16 -27 -42 12 -25 78 -24 111 2 35 28 61 98 49 130 -16 42 -57 72
-104 77 -42 5 -47 2 -100 -46 -59 -54 -88 -59 -88 -16 0 25 29 55 53 55 9 0
22 10 28 22 10 18 8 24 -7 35 -20 15 -30 15 -59 3z"/>
<path d="M1699 4526 c-2 -3 -58 -5 -124 -7 -127 -2 -165 -13 -165 -48 0 -12
46 -49 143 -115 79 -53 148 -96 154 -96 7 0 15 10 18 22 6 17 -1 28 -31 53
l-38 32 25 49 c22 44 28 49 61 52 37 3 58 28 43 52 -6 10 -77 14 -86 6z m-103
-66 c22 0 25 -4 22 -27 -4 -36 -29 -40 -63 -10 -29 24 -27 54 2 43 8 -3 26 -6
39 -6z"/>
<path d="M6550 4496 c-27 -10 -35 -18 -35 -37 0 -20 5 -23 24 -21 14 1 33 10
43 18 9 9 24 14 32 11 23 -9 31 14 11 30 -22 15 -29 15 -75 -1z"/>
<path d="M6550 4392 c-15 -12 -21 -25 -17 -35 8 -22 35 -22 59 0 11 10 31 18
46 19 16 0 27 7 27 15 0 23 -86 24 -115 1z"/>
<path d="M1383 4322 c-7 -4 -19 -43 -28 -87 -9 -44 -19 -83 -22 -88 -2 -4 -1
-16 2 -28 5 -15 14 -19 33 -17 21 2 28 9 30 31 2 16 10 31 18 34 14 5 163 -20
223 -39 27 -8 36 -7 49 6 36 36 -5 55 -187 86 -68 12 -82 23 -74 62 7 37 -15
58 -44 40z"/>
<path d="M6520 4230 c-203 -109 -202 -135 3 -156 179 -19 217 -18 217 5 0 32
-22 40 -133 47 -64 4 -106 11 -104 17 1 5 45 32 97 59 52 27 99 53 103 57 14
14 -2 51 -21 50 -9 0 -82 -36 -162 -79z"/>
<path d="M1330 4030 c-7 -12 -8 -26 -3 -31 4 -4 55 -15 113 -24 58 -9 127 -20
154 -25 28 -4 55 -6 62 -3 16 6 24 27 15 41 -7 11 -113 32 -231 47 -30 3 -65
9 -77 11 -15 4 -25 -1 -33 -16z"/>
<path d="M6570 3978 c-52 -4 -111 -12 -130 -16 l-35 -7 4 -90 c3 -94 12 -125
35 -125 29 0 38 26 28 82 -12 61 -3 83 32 90 38 7 56 -9 57 -50 2 -64 12 -87
39 -87 24 0 25 2 25 70 l0 70 35 0 35 0 6 -63 c7 -71 20 -93 47 -75 14 8 16
23 14 74 -2 35 -7 80 -11 99 -6 33 -9 35 -46 36 -22 1 -83 -3 -135 -8z"/>
<path d="M1347 3889 c-46 -27 -61 -118 -27 -162 56 -71 161 -41 185 54 10 39
31 61 56 57 49 -7 51 -77 1 -100 -32 -15 -42 -55 -16 -65 20 -8 82 24 99 52
13 20 18 49 16 93 -1 13 -14 37 -30 53 -25 24 -38 29 -78 29 -58 0 -80 -18
-113 -92 -25 -58 -54 -78 -70 -49 -16 30 -12 45 15 71 44 42 14 90 -38 59z"/>
<path d="M6712 3698 c-6 -7 -12 -26 -14 -43 l-3 -30 -130 -1 c-165 -2 -155 0
-155 -29 0 -14 1 -26 3 -26 1 -1 65 -5 142 -8 l140 -6 3 -37 c3 -39 25 -56 48
-37 22 18 20 215 -2 223 -21 8 -20 8 -32 -6z"/>
<path d="M1572 3600 c-29 -22 -56 -40 -60 -40 -5 0 -19 11 -32 25 -36 38 -101
35 -142 -6 -30 -30 -31 -31 -24 -107 4 -42 13 -83 20 -90 10 -10 42 -10 157
-2 173 13 179 14 179 46 0 23 -3 24 -70 24 -68 0 -70 1 -70 24 0 19 14 34 65
67 55 35 65 46 65 70 0 41 -24 37 -88 -11z m-125 -62 c17 -21 21 -67 9 -84 -8
-10 -23 -14 -41 -12 -24 2 -30 9 -36 38 -4 19 -3 42 2 52 11 21 52 24 66 6z"/>
<path d="M6395 3418 c-27 -126 -30 -184 -10 -192 22 -8 45 4 45 24 0 10 5 41
12 69 10 45 14 51 38 51 14 0 34 -6 45 -14 16 -12 17 -18 7 -59 -16 -64 -15
-75 10 -83 27 -8 48 18 48 61 0 42 20 68 51 63 26 -3 27 -15 18 -113 -4 -37
-2 -40 23 -43 30 -4 27 -10 49 109 7 37 10 73 7 81 -4 9 -34 19 -79 27 -41 7
-105 19 -143 27 -96 20 -115 18 -121 -8z"/>
<path d="M1630 3316 c0 -13 5 -47 12 -75 13 -60 7 -72 -42 -74 -32 -2 -33 0
-49 58 -14 53 -19 60 -41 60 -28 0 -30 -11 -16 -97 8 -45 7 -47 -17 -53 -37
-10 -43 -3 -62 70 -13 48 -22 65 -35 65 -31 0 -43 -25 -31 -62 6 -18 17 -58
24 -88 12 -54 13 -55 47 -54 19 0 69 9 110 19 41 10 99 23 128 29 30 7 57 19
62 26 4 8 -2 56 -14 105 -20 84 -24 90 -49 93 -23 3 -27 0 -27 -22z"/>
<path d="M6344 3166 c-11 -28 2 -41 62 -61 91 -31 78 -53 -51 -92 -56 -17 -60
-20 -63 -50 -2 -17 -10 -37 -18 -43 -22 -19 -17 -41 16 -75 l31 -32 -20 -46
c-19 -45 -22 -47 -59 -47 -48 0 -73 -23 -51 -46 11 -10 59 -17 173 -25 144 -9
160 -9 177 7 10 9 19 25 19 34 0 9 -56 62 -130 120 -109 87 -143 120 -127 120
1 0 32 11 70 24 l67 24 22 -32 c33 -47 49 -55 99 -56 33 0 51 5 63 19 17 19
56 131 56 164 0 21 -15 27 -167 68 -168 44 -162 43 -169 25z m235 -107 c35
-12 38 -26 15 -75 -19 -40 -57 -47 -74 -13 -12 22 -6 65 12 86 13 16 8 15 47
2z m-155 -310 c37 -29 33 -39 -18 -39 -49 0 -61 9 -51 40 8 26 35 25 69 -1z"/>
<path d="M1497 2993 c-83 -4 -103 -17 -76 -50 12 -13 30 -15 122 -10 133 7
135 0 23 -75 -92 -61 -108 -80 -85 -103 13 -14 29 -6 150 76 171 116 166 111
145 143 -16 25 -20 26 -109 24 -50 -1 -127 -4 -170 -5z"/>
<path d="M1705 2779 c-163 -64 -195 -80 -195 -101 0 -33 28 -31 133 10 56 22
124 48 150 58 55 20 69 40 42 60 -23 17 -10 20 -130 -27z"/>
<path d="M1718 2640 c-75 -38 -139 -73 -142 -78 -3 -5 1 -18 9 -28 13 -18 17
-17 99 25 47 25 88 42 92 38 4 -3 -23 -45 -60 -93 -68 -89 -77 -113 -52 -134
12 -9 42 2 156 61 154 80 169 91 150 114 -16 19 -34 14 -111 -31 -99 -58 -102
-47 -19 62 64 84 76 127 35 131 -11 1 -82 -29 -157 -67z"/>
<path d="M6136 2614 c-10 -27 -8 -29 74 -73 46 -25 77 -47 74 -53 -4 -7 -42
-9 -106 -6 -104 5 -133 -3 -127 -36 3 -11 59 -49 147 -98 133 -74 145 -79 160
-64 15 15 15 18 -3 35 -11 11 -48 34 -82 51 -35 17 -63 36 -63 41 0 6 43 9
106 8 84 -1 109 2 121 14 30 30 26 34 -203 158 -80 44 -89 46 -98 23z"/>
<path d="M1946 2404 c-16 -9 -54 -34 -85 -56 -31 -22 -71 -49 -88 -60 -22 -13
-33 -28 -33 -43 0 -36 28 -38 68 -7 82 63 162 112 186 112 16 0 32 -9 42 -25
15 -23 15 -27 0 -50 -9 -13 -59 -55 -111 -91 -52 -37 -95 -70 -95 -74 0 -4 8
-15 19 -24 18 -16 22 -14 97 39 159 113 186 154 149 225 -33 64 -91 85 -149
54z"/>
<path d="M3309 2313 c-7 -7 -4 -24 8 -50 l18 -38 703 -3 702 -2 20 32 c11 18
19 41 18 51 -3 17 -37 18 -731 20 -543 2 -731 -1 -738 -10z"/>
<path d="M6165 2250 c-10 -15 65 -90 90 -90 48 0 35 54 -16 65 -17 4 -33 13
-36 21 -6 16 -29 19 -38 4z"/>
<path d="M6115 2180 c-8 -13 37 -75 66 -91 11 -6 27 -8 35 -5 25 10 15 42 -18
59 -18 9 -43 24 -55 32 -14 11 -23 13 -28 5z"/>
<path d="M3497 2147 c-2 -7 3 -32 12 -57 l17 -45 512 -3 513 -2 20 46 c11 25
18 52 15 60 -5 12 -87 14 -545 14 -425 0 -540 -3 -544 -13z"/>
<path d="M5465 1648 c-64 -36 -155 -103 -155 -114 0 -7 33 -62 73 -123 39 -60
77 -117 82 -126 14 -24 45 -23 61 1 13 19 11 25 -16 63 -33 45 -35 67 -9 84
13 8 35 3 93 -23 65 -28 80 -31 101 -22 42 19 31 46 -27 69 -29 12 -61 24 -72
27 -13 4 -16 11 -11 24 26 60 12 113 -37 138 -32 17 -56 17 -83 2z m53 -70
c21 -21 13 -45 -23 -77 -41 -35 -51 -37 -77 -14 -29 26 -22 50 25 77 48 29 58
31 75 14z"/>
<path d="M2580 1526 c-73 -112 -94 -134 -118 -120 -9 6 -18 20 -20 30 -9 57
-13 64 -37 64 -25 0 -40 -30 -37 -74 2 -27 49 -74 88 -86 36 -12 74 1 106 36
36 41 128 188 128 205 0 16 -27 39 -44 39 -3 0 -32 -42 -66 -94z"/>
<path d="M5147 1465 c-10 -10 -13 -22 -9 -33 5 -9 27 -57 50 -106 24 -50 42
-99 40 -109 -5 -31 -51 -61 -82 -53 -22 5 -37 27 -79 114 -55 111 -78 132
-107 97 -12 -14 -6 -32 44 -131 35 -68 68 -122 83 -131 69 -46 213 27 213 107
0 52 -94 253 -121 258 -9 2 -24 -4 -32 -13z"/>
<path d="M2874 1449 c-10 -12 -67 -62 -127 -112 -59 -50 -106 -95 -104 -101 2
-6 16 -15 30 -20 22 -8 31 -6 50 12 30 28 39 28 95 -5 57 -33 62 -40 55 -75
-7 -34 11 -58 42 -58 22 0 24 5 30 78 4 42 13 118 20 167 l14 90 -25 23 c-31
28 -55 28 -80 1z m21 -126 c-8 -53 -20 -66 -48 -52 -33 18 -32 40 1 71 46 41
56 37 47 -19z"/>
<path d="M3101 1353 c-5 -10 -10 -84 -12 -164 -4 -157 1 -179 46 -179 23 0 43
26 109 143 15 26 31 47 37 47 6 0 9 -42 8 -111 -1 -61 3 -114 7 -119 5 -5 21
-11 35 -15 25 -6 30 1 108 136 44 78 81 147 81 155 0 7 -10 16 -21 19 -28 9
-45 -9 -89 -93 -43 -82 -65 -89 -62 -17 1 28 5 67 8 87 6 43 -20 78 -60 78
-24 0 -46 -30 -96 -124 -8 -17 -21 -32 -29 -34 -12 -4 -13 12 -8 92 5 87 4 97
-13 106 -27 14 -38 12 -49 -7z"/>
<path d="M4770 1317 c-24 -12 -25 -17 -28 -115 -1 -56 -6 -102 -10 -102 -5 0
-27 33 -50 74 -52 91 -61 99 -106 91 -56 -11 -58 -21 -26 -126 15 -51 35 -119
44 -150 16 -58 38 -78 62 -58 19 15 18 22 -10 109 -13 41 -21 79 -19 84 6 10
49 -40 59 -69 14 -41 55 -95 72 -95 41 1 47 15 44 110 -2 57 0 90 7 90 15 0
22 -16 40 -89 14 -59 19 -66 42 -69 17 -2 29 3 32 12 4 9 -14 81 -38 162 -25
80 -45 148 -45 150 0 9 -47 3 -70 -9z"/>
<path d="M3651 1180 c-17 -28 -31 -52 -31 -55 0 -2 -22 -42 -50 -89 -59 -100
-63 -126 -20 -126 22 0 33 7 44 29 20 38 30 40 99 28 55 -10 58 -12 67 -49 8
-28 17 -39 36 -44 14 -4 30 -2 36 4 13 13 -65 332 -84 344 -7 4 -25 8 -40 8
-21 0 -32 -10 -57 -50z m75 -107 l7 -43 -37 0 c-43 0 -47 17 -15 69 24 40 35
33 45 -26z"/>
<path d="M4344 1219 c-3 -6 -1 -43 5 -83 6 -39 16 -105 21 -146 6 -41 17 -81
24 -89 16 -15 56 -6 56 12 0 31 -39 297 -45 307 -8 13 -52 13 -61 -1z"/>
<path d="M4007 1203 c-44 -5 -60 -29 -32 -49 9 -7 30 -11 44 -8 43 9 50 -11
53 -146 3 -104 6 -125 21 -134 12 -8 22 -8 34 0 15 9 18 29 18 145 l0 134 42
6 c51 6 57 11 48 38 -6 19 -13 21 -98 19 -51 -1 -109 -3 -130 -5z"/>
</g>
</svg>
