<svg width="58" height="58" viewBox="0 0 58 58" fill="none" xmlns="http://www.w3.org/2000/svg">
<path d="M10.5905 0C4.72381 0 0 4.72381 0 10.5905V47.4096C0 53.2762 4.72381 58.0001 10.5905 58.0001H30.5461V35.3257H24.5504V27.1622H30.5461V20.1877C30.5461 14.7081 34.0887 9.67695 42.2494 9.67695C45.5535 9.67695 47.9969 9.99415 47.9969 9.99415L47.8047 17.6176C47.8047 17.6176 45.3128 17.594 42.5938 17.594C39.6509 17.594 39.179 18.9499 39.179 21.2009V27.1622H48.0385L47.6525 35.3257H39.179V58.0001H47.4095C53.2762 58.0001 58 53.2763 58 47.4097V10.5905C58 4.72387 53.2762 5.8e-05 47.4095 5.8e-05H10.5904L10.5905 0Z" fill="#666666"/>
</svg>
