<svg width="59" height="59" viewBox="0 0 59 59" fill="none" xmlns="http://www.w3.org/2000/svg">
<path fill-rule="evenodd" clip-rule="evenodd" d="M17.4608 0.590992C20.5532 0.448629 21.5392 0.416992 29.4167 0.416992C37.2941 0.416992 38.2801 0.451265 41.37 0.590992C44.4598 0.730719 46.5689 1.22372 48.4143 1.93817C50.3468 2.66845 52.1 3.80999 53.55 5.28636C55.0263 6.73372 56.1652 8.48427 56.8929 10.4194C57.61 12.2648 58.1003 14.3739 58.2427 17.4584C58.3851 20.5562 58.4167 21.5422 58.4167 29.417C58.4167 37.2944 58.3824 38.2804 58.2427 41.3729C58.103 44.4574 57.61 46.5665 56.8929 48.412C56.1652 50.3473 55.0244 52.1008 53.55 53.5503C52.1 55.0266 50.3468 56.1655 48.4143 56.8932C46.5689 57.6103 44.4598 58.1006 41.3752 58.243C38.2801 58.3854 37.2941 58.417 29.4167 58.417C21.5392 58.417 20.5532 58.3827 17.4608 58.243C14.3762 58.1033 12.2671 57.6103 10.4217 56.8932C8.48639 56.1654 6.73294 55.0247 5.28341 53.5503C3.80805 52.102 2.66634 50.3494 1.93787 48.4146C1.22341 46.5692 0.733051 44.4601 0.590687 41.3755C0.448323 38.2778 0.416687 37.2918 0.416687 29.417C0.416687 21.5395 0.45096 20.5535 0.590687 17.4637C0.730414 14.3739 1.22341 12.2648 1.93787 10.4194C2.66741 8.48448 3.81 6.73191 5.28605 5.28372C6.73352 3.80868 8.4852 2.66698 10.4191 1.93817C12.2645 1.22372 14.3736 0.733356 17.4581 0.590992H17.4608ZM41.1353 5.81099C38.0771 5.67127 37.1597 5.64227 29.4167 5.64227C21.6737 5.64227 20.7562 5.67127 17.6981 5.81099C14.8692 5.94017 13.3349 6.41208 12.312 6.81017C10.9595 7.33745 9.99196 7.96227 8.97696 8.97727C8.01481 9.91331 7.27434 11.0528 6.80987 12.3123C6.41178 13.3352 5.93987 14.8695 5.81069 17.6984C5.67096 20.7565 5.64196 21.674 5.64196 29.417C5.64196 37.16 5.67096 38.0774 5.81069 41.1356C5.93987 43.9644 6.41178 45.4988 6.80987 46.5217C7.27387 47.7793 8.01469 48.9208 8.97696 49.8567C9.91287 50.819 11.0544 51.5598 12.312 52.0238C13.3349 52.4219 14.8692 52.8938 17.6981 53.023C20.7562 53.1627 21.6711 53.1917 29.4167 53.1917C37.1623 53.1917 38.0771 53.1627 41.1353 53.023C43.9641 52.8938 45.4985 52.4219 46.5214 52.0238C47.8739 51.4965 48.8414 50.8717 49.8564 49.8567C50.8187 48.9208 51.5595 47.7793 52.0235 46.5217C52.4216 45.4988 52.8935 43.9644 53.0227 41.1356C53.1624 38.0774 53.1914 37.16 53.1914 29.417C53.1914 21.674 53.1624 20.7565 53.0227 17.6984C52.8935 14.8695 52.4216 13.3352 52.0235 12.3123C51.4962 10.9598 50.8714 9.99227 49.8564 8.97727C48.9203 8.01518 47.7808 7.27473 46.5214 6.81017C45.4985 6.41208 43.9641 5.94017 41.1353 5.81099ZM25.7126 38.3569C27.7812 39.218 30.0847 39.3342 32.2295 38.6857C34.3743 38.0372 36.2274 36.6641 37.4724 34.8011C38.7173 32.938 39.2768 30.7006 39.0554 28.4708C38.8339 26.2411 37.8452 24.1574 36.2581 22.5756C35.2463 21.5645 34.023 20.7903 32.6761 20.3087C31.3292 19.8272 29.8924 19.6502 28.4689 19.7906C27.0454 19.931 25.6708 20.3853 24.444 21.1207C23.2172 21.8561 22.1686 22.8544 21.3739 24.0437C20.5792 25.233 20.0581 26.5837 19.848 27.9985C19.638 29.4134 19.7443 30.8572 20.1592 32.2261C20.5741 33.5949 21.2874 34.8548 22.2477 35.9149C23.2079 36.975 24.3913 37.809 25.7126 38.3569ZM18.8765 18.8768C20.2607 17.4927 21.9039 16.3947 23.7124 15.6456C25.5209 14.8965 27.4592 14.5109 29.4167 14.5109C31.3742 14.5109 33.3125 14.8965 35.121 15.6456C36.9295 16.3947 38.5727 17.4927 39.9569 18.8768C41.341 20.261 42.439 21.9042 43.1881 23.7127C43.9372 25.5212 44.3228 27.4595 44.3228 29.417C44.3228 31.3745 43.9372 33.3128 43.1881 35.1213C42.439 36.9298 41.341 38.573 39.9569 39.9572C37.1614 42.7526 33.37 44.3231 29.4167 44.3231C25.4634 44.3231 21.6719 42.7526 18.8765 39.9572C16.0811 37.1617 14.5106 33.3703 14.5106 29.417C14.5106 25.4637 16.0811 21.6722 18.8765 18.8768ZM47.6287 16.7308C47.9717 16.4072 48.2463 16.0182 48.4362 15.5866C48.6261 15.155 48.7276 14.6897 48.7344 14.2182C48.7413 13.7467 48.6535 13.2786 48.4762 12.8417C48.299 12.4047 48.0358 12.0078 47.7024 11.6744C47.369 11.3409 46.972 11.0778 46.5351 10.9005C46.0982 10.7233 45.6301 10.6355 45.1586 10.6423C44.6871 10.6492 44.2218 10.7506 43.7902 10.9406C43.3586 11.1305 42.9695 11.4051 42.646 11.7481C42.0167 12.4152 41.6722 13.3012 41.6855 14.2182C41.6989 15.1351 42.0691 16.0108 42.7176 16.6592C43.366 17.3077 44.2416 17.6779 45.1586 17.6912C46.0756 17.7046 46.9616 17.3601 47.6287 16.7308Z" fill="#666666"/>
</svg>
